<?xml version="1.0" encoding="UTF-8" ?>
<!DOCTYPE svg PUBLIC "-//W3C//DTD SVG 1.1//EN" "http://www.w3.org/Graphics/SVG/1.1/DTD/svg11.dtd">
<svg width="1400pt" height="400pt" viewBox="0 0 1400 400" version="1.1" xmlns="http://www.w3.org/2000/svg">
<g id="#000000ff">
<path fill="#000000" opacity="1.00" d=" M 115.57 79.38 C 133.31 73.29 152.78 73.05 170.84 77.93 C 179.25 79.66 187.18 83.11 195.56 84.88 C 198.48 81.19 199.96 76.23 204.37 73.91 C 204.92 73.94 206.03 73.99 206.58 74.01 C 207.70 75.12 208.82 76.23 209.95 77.34 C 211.73 84.44 212.10 91.79 213.14 99.02 C 214.39 110.60 216.76 122.07 217.10 133.73 C 215.90 134.48 214.70 135.22 213.50 135.97 C 212.45 136.00 211.41 136.04 210.37 136.08 C 206.14 133.93 204.35 129.43 202.41 125.40 C 196.08 111.43 184.22 100.58 170.94 93.29 C 159.32 86.68 144.85 85.05 132.17 89.38 C 125.58 92.00 119.18 96.15 115.57 102.43 C 111.37 108.74 110.00 116.88 111.86 124.23 C 113.50 130.69 118.48 135.55 123.48 139.63 C 131.54 145.51 141.21 148.46 150.54 151.64 C 170.48 157.52 191.09 163.43 207.89 176.20 C 215.36 181.45 220.75 189.08 225.17 196.95 C 233.82 213.83 234.04 234.36 226.89 251.80 C 225.89 254.39 224.25 256.71 221.72 258.00 C 211.38 258.57 201.10 260.03 190.78 260.99 C 192.60 252.77 194.56 243.90 191.14 235.81 C 188.36 227.69 181.82 221.58 174.59 217.32 C 163.84 210.98 151.97 206.89 140.15 203.07 C 127.64 198.75 115.02 194.33 103.60 187.53 C 88.53 178.93 78.07 163.31 74.37 146.51 C 71.23 131.01 75.00 114.19 84.75 101.70 C 92.25 91.17 103.45 83.61 115.57 79.38 Z" />
<path fill="#000000" opacity="1.00" d=" M 1251.50 84.73 C 1254.24 84.79 1257.70 85.08 1259.09 87.88 C 1262.75 95.30 1262.48 104.87 1257.32 111.54 C 1254.80 116.63 1251.33 122.48 1253.55 128.28 C 1255.31 129.46 1257.32 130.23 1259.13 131.37 C 1258.36 135.00 1254.21 139.10 1257.35 142.58 C 1260.38 146.50 1263.04 150.74 1265.03 155.28 C 1264.95 159.18 1262.21 163.46 1265.10 166.98 C 1267.60 167.96 1270.28 168.38 1272.90 169.03 C 1274.99 171.29 1276.08 174.19 1276.92 177.11 C 1279.78 175.74 1282.13 173.58 1284.81 171.90 C 1298.02 165.55 1312.79 162.03 1327.50 162.96 C 1328.01 163.31 1329.02 163.99 1329.52 164.34 C 1332.78 169.69 1340.31 167.46 1344.41 171.69 C 1347.86 175.35 1352.52 178.55 1353.53 183.81 C 1354.68 187.44 1354.66 191.43 1352.93 194.88 C 1351.03 199.91 1348.48 204.67 1345.69 209.25 C 1346.29 209.58 1347.48 210.22 1348.08 210.55 C 1348.08 212.07 1346.45 212.71 1345.49 213.59 C 1337.07 220.04 1325.39 217.55 1316.39 222.72 C 1314.76 223.74 1314.22 225.71 1313.49 227.36 C 1311.73 231.86 1309.90 236.41 1309.36 241.25 C 1311.86 241.92 1314.64 242.97 1317.09 241.48 C 1324.52 237.63 1331.41 232.41 1339.72 230.53 C 1345.48 228.79 1351.52 228.87 1357.48 229.03 C 1358.75 229.83 1360.04 230.64 1361.34 231.47 C 1355.14 235.13 1348.11 236.77 1341.17 238.33 C 1335.87 239.59 1330.19 238.52 1325.17 240.96 C 1326.12 241.48 1327.10 241.99 1328.09 242.50 C 1342.61 240.35 1357.15 238.14 1371.78 236.82 C 1373.83 239.18 1375.35 241.93 1376.95 244.61 C 1376.96 245.06 1376.97 245.96 1376.98 246.42 C 1376.66 246.99 1376.03 248.14 1375.72 248.71 C 1374.63 249.44 1373.56 250.17 1372.51 250.92 C 1364.42 251.66 1356.17 251.61 1348.32 253.95 C 1348.55 254.69 1349.02 256.16 1349.25 256.90 C 1344.76 256.84 1340.34 257.47 1335.95 258.25 C 1330.60 259.19 1325.24 257.55 1319.89 258.24 C 1315.86 258.76 1311.45 258.57 1307.94 260.92 C 1306.55 261.77 1304.98 262.54 1303.33 262.10 C 1299.06 261.17 1296.97 256.78 1293.25 254.90 C 1288.36 252.32 1282.75 251.71 1277.71 249.52 C 1273.36 247.84 1270.13 244.37 1266.75 241.32 C 1263.33 238.17 1259.73 234.79 1258.38 230.19 C 1256.78 224.97 1255.28 219.49 1256.23 214.00 C 1257.01 209.46 1258.59 205.06 1258.69 200.42 C 1263.17 194.60 1268.51 189.41 1272.07 182.90 C 1271.30 182.56 1269.75 181.88 1268.98 181.54 C 1268.06 181.98 1267.15 182.43 1266.26 182.88 C 1264.67 185.98 1261.43 186.50 1258.28 186.68 C 1258.46 190.23 1258.98 193.74 1259.37 197.28 C 1256.53 201.91 1254.70 207.03 1252.45 211.95 C 1248.65 219.02 1245.58 226.46 1241.48 233.38 C 1239.13 237.06 1237.70 241.56 1234.01 244.19 C 1231.20 246.10 1229.96 249.41 1227.53 251.68 C 1227.30 250.96 1226.84 249.52 1226.60 248.80 C 1224.46 242.76 1228.87 237.39 1231.08 232.10 C 1234.21 224.67 1236.96 217.06 1239.18 209.30 C 1240.97 202.10 1240.23 194.54 1242.02 187.32 C 1243.28 185.48 1244.70 183.77 1246.21 182.12 C 1248.16 181.96 1250.20 182.00 1252.07 181.26 C 1253.65 177.79 1254.18 173.33 1251.97 170.00 C 1250.33 167.65 1248.28 165.58 1246.90 163.05 C 1244.97 159.69 1243.68 155.81 1240.69 153.19 C 1239.52 152.07 1237.40 152.02 1236.41 153.39 C 1234.10 155.56 1233.06 158.65 1231.57 161.37 C 1229.22 166.22 1225.61 170.40 1223.89 175.55 C 1222.13 180.92 1218.03 184.99 1215.46 189.92 C 1214.83 192.21 1217.01 193.88 1218.07 195.64 C 1218.30 201.79 1217.66 207.94 1218.20 214.09 C 1218.51 219.68 1214.94 224.42 1211.34 228.32 C 1206.76 233.18 1201.53 237.40 1196.06 241.21 C 1192.39 243.67 1190.62 247.92 1187.67 251.08 C 1187.45 251.98 1187.25 252.89 1187.07 253.80 C 1188.55 253.14 1190.03 252.46 1191.52 251.78 C 1188.98 256.88 1186.21 261.87 1183.67 266.96 C 1181.03 266.55 1177.82 265.37 1175.56 267.39 C 1173.06 269.61 1170.06 271.37 1168.03 274.04 C 1165.23 281.24 1163.87 288.97 1160.45 295.94 C 1160.67 297.06 1160.90 298.19 1161.13 299.32 C 1159.04 301.56 1156.65 303.74 1155.66 306.74 C 1149.67 325.62 1142.17 343.99 1136.07 362.83 C 1134.67 367.51 1130.42 370.26 1126.97 373.34 C 1126.98 370.80 1127.01 368.26 1127.11 365.72 C 1132.04 345.19 1138.76 325.08 1146.23 305.34 C 1147.66 292.78 1154.83 281.96 1157.72 269.80 C 1158.82 265.46 1161.48 261.52 1161.81 257.00 C 1162.04 254.73 1159.45 254.04 1158.02 252.94 C 1155.98 256.03 1154.28 259.33 1152.15 262.34 C 1151.40 263.93 1149.60 262.61 1149.09 261.58 C 1148.56 257.88 1149.31 254.17 1149.70 250.50 C 1150.70 243.61 1150.70 236.53 1152.88 229.85 C 1156.27 219.05 1157.66 207.64 1162.11 197.17 C 1164.29 191.71 1164.59 185.76 1165.84 180.06 C 1167.27 172.61 1168.34 164.27 1174.31 158.90 C 1175.80 158.88 1177.30 158.87 1178.82 158.87 C 1181.92 161.70 1184.16 166.10 1182.36 170.27 C 1178.37 181.33 1172.94 192.08 1171.32 203.85 C 1173.33 203.03 1175.48 202.37 1177.20 200.97 C 1179.27 199.05 1179.64 196.09 1180.47 193.52 C 1181.37 188.78 1186.39 186.99 1189.53 183.96 C 1193.68 183.22 1197.88 183.59 1202.07 183.71 C 1204.17 183.89 1205.30 181.79 1206.48 180.41 C 1211.94 172.28 1217.33 164.11 1222.79 155.98 C 1226.39 150.71 1228.56 144.66 1230.82 138.73 C 1232.08 135.22 1233.47 131.71 1234.01 127.99 C 1234.68 123.78 1234.19 119.28 1236.23 115.39 C 1238.19 112.66 1241.66 111.21 1242.94 107.96 C 1244.83 103.39 1244.19 98.30 1245.23 93.55 C 1246.16 89.92 1248.99 87.32 1251.50 84.73 M 1290.55 187.54 C 1286.30 191.85 1281.64 196.37 1280.18 202.47 C 1283.77 202.30 1287.53 201.50 1291.00 202.92 C 1295.58 204.67 1301.15 205.33 1305.34 202.23 C 1310.69 198.36 1315.11 193.31 1319.18 188.15 C 1320.72 185.93 1322.97 183.71 1322.64 180.78 C 1321.10 177.35 1316.96 177.89 1313.91 178.22 C 1305.25 178.63 1298.21 184.17 1290.55 187.54 M 1269.55 217.66 C 1268.62 220.81 1270.16 223.99 1271.39 226.83 C 1273.61 231.61 1278.70 233.89 1283.29 235.79 C 1287.01 237.22 1291.09 239.01 1295.08 237.51 C 1296.85 233.10 1299.45 228.66 1298.65 223.71 C 1296.23 223.66 1293.84 223.64 1291.45 223.71 C 1290.04 223.43 1288.66 223.17 1287.29 222.92 C 1283.78 220.33 1281.61 216.33 1278.06 213.86 C 1274.91 213.15 1270.58 214.14 1269.55 217.66 M 1192.44 224.67 C 1192.54 225.23 1192.74 226.35 1192.84 226.92 C 1193.07 226.29 1193.32 225.67 1193.58 225.05 C 1195.35 223.26 1197.02 221.37 1198.61 219.41 C 1198.60 218.59 1198.59 216.95 1198.58 216.13 C 1196.16 218.69 1194.06 221.53 1192.44 224.67 M 1169.44 230.75 L 1167.87 230.49 C 1168.13 230.96 1168.64 231.90 1168.89 232.37 C 1168.50 232.39 1167.73 232.43 1167.34 232.44 C 1167.45 234.42 1167.59 236.39 1167.74 238.37 C 1168.62 235.62 1169.54 232.88 1170.40 230.12 C 1170.30 229.46 1170.11 228.14 1170.01 227.48 C 1169.87 228.30 1169.58 229.93 1169.44 230.75 Z" />
<path fill="#000000" opacity="1.00" d=" M 525.73 151.26 C 541.83 148.50 558.76 148.23 574.44 153.29 C 582.30 156.40 590.55 160.37 595.25 167.75 C 599.93 176.02 599.68 185.83 600.56 195.01 C 600.33 202.63 599.72 210.24 600.00 217.87 C 577.67 220.99 555.16 222.70 532.75 225.24 C 524.43 225.98 516.13 227.39 507.75 227.14 C 506.51 227.55 505.27 227.95 504.04 228.35 L 503.99 227.32 C 504.60 227.07 505.83 226.55 506.44 226.29 C 517.40 220.34 529.40 216.80 540.90 212.10 C 546.46 209.69 552.40 207.19 556.15 202.19 C 562.11 194.57 562.83 184.13 560.92 174.95 C 559.54 167.80 553.47 161.69 546.17 160.75 C 541.51 160.34 536.18 160.12 532.43 163.41 C 527.85 167.46 527.14 173.91 525.62 179.48 C 524.26 184.97 521.53 190.61 516.37 193.43 C 510.32 196.61 502.56 197.07 496.55 193.54 C 491.75 190.97 489.36 185.29 489.45 180.03 C 489.93 172.33 493.95 164.74 500.57 160.60 C 508.17 155.74 516.99 153.15 525.73 151.26 Z" />
<path fill="#000000" opacity="1.00" d=" M 634.18 151.00 C 646.75 149.66 659.42 150.98 672.02 150.03 C 679.03 150.38 686.04 148.82 693.01 150.02 C 693.07 156.05 692.65 162.12 693.53 168.12 C 701.55 161.38 710.02 154.47 720.48 152.08 C 732.86 148.62 746.28 151.37 757.41 157.40 C 773.21 166.26 786.48 180.40 791.97 197.91 C 777.35 200.32 762.52 201.16 747.81 202.82 C 744.66 191.93 741.70 180.07 732.80 172.27 C 725.16 164.68 711.14 164.66 703.97 172.92 C 696.67 181.61 694.04 193.10 692.43 204.07 C 691.99 205.68 692.29 207.80 690.64 208.78 C 684.78 209.69 678.85 209.96 672.98 210.75 C 666.33 211.36 659.69 212.53 653.00 212.06 C 652.93 204.40 653.28 196.72 652.52 189.09 C 652.02 181.21 653.53 172.27 648.61 165.47 C 644.54 160.42 637.31 162.01 632.30 158.72 C 629.48 156.06 632.49 153.22 634.18 151.00 Z" />
<path fill="#000000" opacity="1.00" d=" M 843.28 158.39 C 852.41 152.52 863.25 149.86 874.02 149.52 C 883.46 150.17 892.96 152.06 901.40 156.51 C 904.67 157.94 907.97 160.59 911.75 159.67 C 914.64 158.23 915.19 153.15 918.99 153.33 C 921.91 153.27 922.59 156.78 923.14 159.01 C 924.20 167.04 925.22 175.12 925.47 183.23 C 921.73 184.58 917.74 185.48 913.76 185.36 C 911.22 184.92 909.95 182.46 908.58 180.58 C 903.33 172.41 895.99 165.06 886.62 161.90 C 880.65 160.21 874.26 158.69 868.12 160.50 C 861.37 161.81 854.44 166.66 853.67 173.96 C 853.48 180.42 859.32 184.43 862.81 189.12 C 860.90 190.07 859.02 191.26 856.85 191.44 C 847.56 192.40 838.27 193.40 828.96 194.17 C 827.07 194.48 825.37 192.74 825.49 190.88 C 824.25 177.67 832.70 165.51 843.28 158.39 Z" />
<path fill="#000000" opacity="1.00" d=" M 243.97 155.31 C 246.03 151.85 250.55 152.35 254.00 152.48 C 260.60 153.51 267.30 153.30 273.90 154.29 C 282.29 155.16 290.56 153.18 298.94 153.34 C 304.47 153.14 310.27 151.21 315.65 153.28 C 318.82 154.32 319.50 159.17 316.79 161.05 C 313.09 163.41 307.66 162.14 304.83 165.98 C 302.58 168.96 304.13 172.80 305.25 175.90 C 314.41 199.37 326.22 221.67 336.31 244.73 C 333.93 245.44 331.58 246.34 329.07 246.49 C 320.03 247.16 311.06 248.63 302.00 249.11 C 299.61 249.66 298.55 247.03 297.51 245.42 C 293.75 238.12 290.09 230.78 286.80 223.26 C 278.84 207.19 270.86 191.12 262.83 175.09 C 260.84 171.29 258.60 167.38 254.98 164.91 C 252.03 162.90 248.32 162.61 245.24 160.91 C 243.23 159.87 243.34 157.16 243.97 155.31 Z" />
<path fill="#000000" opacity="1.00" d=" M 334.76 153.85 C 338.01 152.59 341.53 152.00 345.00 152.68 C 352.63 154.18 360.46 152.65 368.11 153.99 C 371.92 154.62 375.81 154.52 379.62 153.89 C 384.37 153.12 389.22 153.68 393.96 152.83 C 397.37 152.48 401.25 151.74 404.36 153.55 C 406.55 154.79 406.58 157.49 405.96 159.63 C 402.81 162.91 397.77 162.56 394.11 164.95 C 391.36 167.03 391.36 170.93 391.81 174.02 C 392.60 178.12 394.26 181.99 395.86 185.82 C 402.20 200.03 408.48 214.28 414.85 228.48 C 416.09 231.23 417.05 234.09 418.03 236.94 C 408.40 238.43 398.66 239.00 389.01 240.33 C 386.39 240.69 383.75 240.46 381.15 240.20 C 375.75 229.91 371.63 219.02 366.30 208.70 C 365.92 208.64 365.14 208.53 364.75 208.47 C 359.39 219.21 355.67 230.70 350.59 241.57 C 348.58 246.13 342.61 244.26 338.68 245.08 C 344.40 227.72 353.18 211.25 356.29 193.08 C 356.57 187.58 354.99 182.14 352.95 177.08 C 350.80 172.00 347.63 166.93 342.55 164.38 C 340.01 163.02 336.93 162.40 335.06 160.06 C 333.10 158.44 334.49 155.89 334.76 153.85 Z" />
<path fill="#000000" opacity="1.00" d=" M 430.90 154.04 C 439.27 150.49 448.22 155.15 456.86 154.01 C 461.56 153.31 466.32 153.41 471.02 152.72 C 473.18 152.34 475.23 153.27 477.28 153.84 C 477.96 156.16 478.07 158.60 477.17 160.89 C 472.63 163.01 467.57 164.38 463.93 168.01 C 458.93 172.61 457.02 179.34 454.54 185.43 C 450.88 195.69 447.25 205.96 443.39 216.15 C 440.89 222.48 439.11 229.10 435.89 235.13 C 432.52 235.52 429.13 235.69 425.76 236.01 C 427.23 228.63 430.66 221.87 432.90 214.73 C 437.65 201.41 442.42 188.09 446.33 174.50 C 447.65 171.00 446.54 166.81 443.03 165.12 C 439.03 163.52 434.68 162.95 430.83 160.94 C 429.98 158.67 429.93 156.27 430.90 154.04 Z" />
<path fill="#000000" opacity="1.00" d=" M 1085.01 166.61 C 1089.19 165.43 1093.49 166.69 1097.71 167.03 C 1101.65 168.92 1104.41 173.23 1102.92 177.65 C 1100.67 180.06 1097.03 180.05 1093.97 180.03 C 1089.34 179.96 1084.51 179.43 1080.14 181.30 C 1073.58 184.09 1066.45 185.60 1060.44 189.57 C 1056.76 192.11 1052.39 193.28 1048.53 195.48 C 1044.75 197.61 1041.13 200.02 1037.45 202.30 C 1034.06 204.45 1029.60 204.64 1026.77 207.67 C 1023.61 211.20 1018.53 211.87 1015.28 215.29 C 1010.11 220.08 1003.54 223.24 998.75 228.41 C 995.81 234.41 989.11 236.99 985.65 242.56 C 984.85 244.39 984.70 246.64 985.53 248.48 C 987.95 252.13 991.73 254.53 995.46 256.69 C 999.98 259.28 1004.02 262.70 1008.77 264.92 C 1014.09 267.40 1019.34 270.25 1025.13 271.51 C 1036.72 272.65 1049.08 275.12 1060.16 270.10 C 1072.88 263.59 1084.52 255.19 1096.48 247.47 C 1098.31 244.38 1098.82 240.74 1100.14 237.44 C 1102.71 229.77 1107.39 222.70 1114.05 218.01 C 1118.85 213.45 1123.99 209.23 1128.27 204.15 C 1133.91 203.27 1139.85 199.93 1145.49 202.62 C 1149.41 204.30 1149.59 209.31 1149.26 212.97 C 1148.80 215.70 1149.49 218.39 1150.90 220.75 C 1150.91 221.95 1150.92 223.15 1150.93 224.36 C 1147.99 235.32 1144.16 246.65 1135.84 254.76 C 1131.35 258.55 1127.05 262.71 1121.50 264.90 C 1116.84 265.53 1111.99 266.73 1107.43 264.95 C 1105.54 263.13 1103.75 261.17 1101.56 259.72 C 1100.18 259.09 1098.89 260.28 1097.70 260.76 C 1090.03 264.97 1082.80 269.95 1075.07 274.03 C 1069.70 275.88 1064.60 278.38 1059.50 280.84 C 1054.39 281.98 1049.21 283.30 1043.94 282.80 C 1039.18 282.34 1034.42 282.93 1029.67 282.97 C 1024.73 281.57 1019.81 280.11 1015.17 277.90 C 1008.00 274.54 1000.04 272.40 994.03 267.02 C 987.90 262.71 980.14 260.56 975.30 254.53 C 972.71 249.21 971.81 243.20 972.94 237.38 C 976.30 231.94 981.67 228.35 986.57 224.44 C 993.35 219.26 999.85 213.72 1006.80 208.76 C 1017.93 201.50 1029.34 194.68 1040.57 187.58 C 1051.06 181.51 1061.67 175.65 1072.48 170.15 C 1076.66 169.03 1080.79 167.68 1085.01 166.61 M 1124.32 226.33 C 1121.00 229.84 1117.17 232.92 1114.36 236.87 C 1114.57 239.01 1116.03 240.75 1116.97 242.63 C 1116.96 243.85 1116.95 245.07 1116.96 246.30 C 1116.01 247.80 1114.28 249.21 1114.69 251.18 C 1119.66 252.66 1125.01 249.99 1128.19 246.17 C 1132.59 241.08 1136.32 235.23 1138.41 228.81 C 1138.97 226.50 1139.74 223.15 1137.51 221.51 C 1132.60 220.00 1127.62 222.85 1124.32 226.33 Z" />
<path fill="#000000" opacity="1.00" d=" M 946.47 171.03 C 946.39 168.98 947.29 167.12 948.01 165.25 C 949.95 169.10 949.34 173.48 950.38 177.54 C 955.01 176.88 960.40 175.15 964.54 178.26 C 970.32 182.12 970.51 191.88 964.63 195.73 C 960.12 199.25 954.17 197.41 949.08 196.59 C 947.26 196.53 945.98 194.78 946.19 193.04 C 946.13 185.70 946.19 178.36 946.47 171.03 M 954.29 180.37 C 952.44 181.50 951.27 183.45 950.41 185.38 C 948.99 187.84 950.94 190.58 952.54 192.42 C 956.28 196.45 964.32 193.92 964.14 188.08 C 965.27 182.77 959.24 177.48 954.29 180.37 Z" />
<path fill="#000000" opacity="1.00" d=" M 971.45 177.38 C 972.62 177.54 973.85 177.60 975.01 177.93 C 977.24 181.43 978.24 185.55 979.97 189.31 C 980.64 189.31 981.32 189.31 982.02 189.31 C 983.48 185.36 985.05 181.44 986.92 177.65 C 987.89 177.60 988.87 177.55 989.86 177.50 C 989.82 182.77 986.93 187.30 985.24 192.12 C 983.47 196.61 982.05 201.35 979.23 205.31 C 977.47 207.76 974.33 207.54 971.70 207.26 C 972.02 207.07 972.65 206.69 972.96 206.50 C 975.19 204.07 978.42 201.72 978.31 198.06 C 977.43 190.73 972.34 184.72 971.45 177.38 Z" />
<path fill="#000000" opacity="1.00" d=" M 826.70 206.15 C 832.52 204.64 838.63 203.73 844.65 204.04 C 846.77 206.38 848.04 209.43 850.52 211.47 C 856.05 215.97 863.05 217.95 869.88 219.55 C 883.17 222.90 897.32 224.45 909.27 231.66 C 916.24 235.81 921.75 242.51 923.70 250.46 C 928.01 264.40 925.37 280.60 915.83 291.81 C 907.39 301.55 894.69 306.69 882.08 308.01 C 874.81 309.34 867.48 308.01 860.29 306.89 C 848.41 304.76 836.92 299.30 828.65 290.38 C 825.20 287.06 822.12 283.22 820.56 278.63 C 825.56 274.66 830.72 270.85 836.32 267.74 C 842.96 279.70 855.26 288.48 868.89 290.23 C 875.43 290.50 882.26 291.06 888.51 288.65 C 896.50 285.85 903.78 279.68 906.17 271.34 C 907.70 264.95 907.26 257.43 902.75 252.29 C 899.37 248.11 894.40 245.67 889.48 243.78 C 874.04 238.51 857.11 237.43 842.68 229.36 C 834.03 224.80 827.61 215.96 826.70 206.15 Z" />
<path fill="#000000" opacity="1.00" d=" M 774.76 211.14 C 779.55 210.63 784.32 209.99 789.13 209.59 C 791.14 209.39 793.68 209.86 794.06 212.25 C 797.97 227.23 797.28 243.21 792.88 258.01 C 787.43 275.37 775.73 291.14 759.41 299.59 C 748.65 305.70 736.25 308.18 724.00 308.59 C 708.46 308.02 692.59 303.48 680.46 293.47 C 676.37 290.08 673.18 285.83 669.69 281.88 C 668.11 287.12 668.66 292.62 668.61 298.01 C 668.60 318.34 668.60 338.67 668.60 359.00 C 668.57 364.36 668.85 369.75 668.08 375.07 C 662.39 375.84 656.60 375.84 650.92 375.07 C 650.15 369.75 650.42 364.35 650.40 358.99 C 650.40 319.65 650.40 280.31 650.40 240.97 C 650.42 235.67 650.15 230.34 650.90 225.07 C 656.19 223.77 661.62 223.40 667.03 222.91 C 667.26 225.59 667.38 228.27 667.19 230.95 C 666.56 246.15 672.24 261.32 682.34 272.63 C 691.25 282.43 703.77 288.93 716.96 290.32 C 724.83 290.48 732.93 291.01 740.51 288.39 C 753.94 284.77 765.07 274.60 771.13 262.23 C 779.19 246.55 779.36 227.89 774.76 211.14 Z" />
<path fill="#000000" opacity="1.00" d=" M 73.99 220.03 C 75.81 219.56 77.63 219.09 79.48 218.71 C 82.31 221.43 84.47 224.75 85.82 228.44 C 92.01 243.68 101.38 257.56 113.34 268.85 C 107.77 269.40 102.25 270.37 96.66 270.75 C 90.11 271.26 83.59 272.76 77.00 272.18 C 75.18 259.50 74.86 246.68 73.58 233.95 C 73.39 229.31 72.29 224.52 73.99 220.03 Z" />
<path fill="#000000" opacity="1.00" d=" M 589.70 231.32 C 595.46 230.57 601.23 229.58 607.07 229.84 C 608.41 243.46 606.95 257.20 607.90 270.86 C 608.06 281.91 608.85 292.95 610.10 303.93 C 604.45 304.80 598.68 304.87 593.02 304.11 C 590.98 297.45 591.34 290.40 590.39 283.57 C 585.86 288.95 581.89 295.01 575.93 298.98 C 566.52 306.03 554.46 308.25 542.95 308.58 C 529.17 308.31 514.57 304.44 504.64 294.37 C 494.31 283.76 491.67 267.52 495.24 253.50 C 496.57 249.11 498.08 244.48 501.38 241.15 C 505.14 240.03 509.10 239.99 512.97 239.49 C 519.63 238.80 526.29 237.74 533.01 237.97 L 533.00 238.70 C 532.38 238.94 531.15 239.42 530.53 239.66 C 524.64 242.67 518.72 246.48 515.60 252.54 C 511.36 260.20 511.47 270.27 516.25 277.67 C 520.58 284.92 528.90 288.84 536.98 290.17 C 546.58 290.84 556.60 290.75 565.57 286.83 C 576.60 282.43 585.02 272.49 587.95 261.03 C 590.91 251.97 590.17 242.37 590.65 233.00 C 588.42 233.00 586.21 233.00 584.00 233.00 L 584.00 232.24 C 585.90 232.01 587.82 231.78 589.70 231.32 Z" />
<path fill="#000000" opacity="1.00" d=" M 432.17 248.84 C 437.34 247.22 442.83 247.38 448.18 246.91 C 444.01 263.84 438.84 280.50 434.23 297.31 C 433.59 299.63 432.75 301.88 431.89 304.13 C 425.72 304.84 419.46 304.86 413.31 304.06 C 409.28 294.65 406.67 284.73 402.88 275.24 C 400.67 267.82 397.46 260.70 395.66 253.17 C 400.49 251.16 405.79 251.36 410.91 250.88 C 415.86 259.44 416.80 269.67 421.93 278.11 C 425.39 269.59 426.86 260.46 429.70 251.74 C 430.07 250.48 430.69 249.05 432.17 248.84 Z" />
<path fill="#000000" opacity="1.00" d=" M 332.20 260.07 C 337.55 258.03 343.33 258.22 348.95 257.89 C 344.35 273.43 338.87 288.70 333.88 304.12 C 327.66 304.85 321.34 304.85 315.13 304.12 C 312.44 296.86 310.49 289.37 308.19 281.99 C 306.45 275.72 304.12 269.62 302.82 263.23 C 308.07 261.40 313.62 261.37 319.09 260.97 C 321.63 265.95 322.41 271.57 324.52 276.72 C 324.98 276.68 325.90 276.61 326.36 276.57 C 328.50 271.14 330.25 265.57 332.20 260.07 Z" />
<path fill="#000000" opacity="1.00" d=" M 225.52 271.01 C 233.37 269.45 241.42 269.32 249.32 268.21 C 249.09 268.80 248.62 269.98 248.39 270.57 C 243.82 285.03 232.31 296.68 218.73 303.06 C 202.00 311.44 182.37 311.75 164.37 307.95 C 148.08 304.41 132.61 295.70 122.40 282.35 C 131.61 280.68 140.97 280.00 150.26 278.94 C 160.17 287.12 173.20 291.12 185.99 290.43 C 201.30 291.07 216.92 283.86 225.52 271.01 Z" />
</g>
</svg>
